<?xml version="1.0" encoding="UTF-8" standalone="no"?>
<svg
   xmlns:dc="http://purl.org/dc/elements/1.1/"
   xmlns:cc="http://creativecommons.org/ns#"
   xmlns:rdf="http://www.w3.org/1999/02/22-rdf-syntax-ns#"
   xmlns:svg="http://www.w3.org/2000/svg"
   xmlns="http://www.w3.org/2000/svg"
   xmlns:xlink="http://www.w3.org/1999/xlink"
   xmlns:sodipodi="http://sodipodi.sourceforge.net/DTD/sodipodi-0.dtd"
   xmlns:inkscape="http://www.inkscape.org/namespaces/inkscape"
   sodipodi:docname="grey-cloud-1.svg"
   inkscape:version="1.0 (4035a4fb49, 2020-05-01)"
   version="1.1"
   id="svg2"
   viewBox="0 0 59.629171 33.946909"
   height="9.5805721mm"
   width="16.828676mm">
  <defs
     id="defs4">
    <linearGradient
       id="linearGradient147"
       inkscape:collect="always">
      <stop
         id="stop143"
         offset="0"
         style="stop-color:#ffffff;stop-opacity:1;" />
      <stop
         id="stop145"
         offset="1"
         style="stop-color:#ffffff;stop-opacity:0;" />
    </linearGradient>
    <clipPath
       clipPathUnits="userSpaceOnUse"
       id="clipEmfPath1">
      <path
         d="m 4.4748,-1.78992 582.6182,0 0,841.26192 -582.6182,0 z"
         id="path3341"
         inkscape:connector-curvature="0" />
    </clipPath>
    <pattern
       id="EMFhbasepattern"
       patternUnits="userSpaceOnUse"
       width="6"
       height="6"
       x="0"
       y="0" />
    <clipPath
       clipPathUnits="userSpaceOnUse"
       id="clipEmfPath1-1">
      <path
         d="m 0.894959,2.68488 531.606041,0 0,444.79512 -531.606041,0 z"
         id="path6104"
         inkscape:connector-curvature="0" />
    </clipPath>
    <pattern
       id="EMFhbasepattern-6"
       patternUnits="userSpaceOnUse"
       width="6"
       height="6"
       x="0"
       y="0" />
    <linearGradient
       gradientTransform="matrix(2.8125,0,0,2.8125,281.75603,611.35964)"
       gradientUnits="userSpaceOnUse"
       y2="10.556452"
       x2="28.930319"
       y1="29.336716"
       x1="42.589195"
       id="linearGradient149"
       xlink:href="#linearGradient147"
       inkscape:collect="always" />
  </defs>
  <sodipodi:namedview
     inkscape:document-rotation="0"
     inkscape:window-maximized="1"
     inkscape:window-y="0"
     inkscape:window-x="0"
     inkscape:window-height="704"
     inkscape:window-width="1366"
     fit-margin-bottom="0"
     fit-margin-right="0"
     fit-margin-left="0"
     fit-margin-top="0"
     showgrid="false"
     inkscape:current-layer="layer1"
     inkscape:document-units="px"
     inkscape:cy="34.683588"
     inkscape:cx="92.414121"
     inkscape:zoom="2.7567896"
     inkscape:pageshadow="2"
     inkscape:pageopacity="0.0"
     borderopacity="1.0"
     bordercolor="#666666"
     pagecolor="#ffffff"
     id="base" />
  <metadata
     id="metadata7">
    <rdf:RDF>
      <cc:Work
         rdf:about="">
        <dc:format>image/svg+xml</dc:format>
        <dc:type
           rdf:resource="http://purl.org/dc/dcmitype/StillImage" />
        <dc:title />
      </cc:Work>
    </rdf:RDF>
  </metadata>
  <g
     transform="translate(-341.3852,-645.30655)"
     id="layer1"
     inkscape:groupmode="layer"
     inkscape:label="Layer 1">
    <g
       transform="matrix(3,0,0,3,-870.971,-1234.56)"
       id="g6280">
      <path
         inkscape:connector-curvature="0"
         id="path6175"
         d="m 392.23458,627.40671 c -4.81471,0.64714 -8.20872,5.00408 -7.57739,9.75586 0.63162,4.75149 5.0515,8.08228 9.85069,7.45095 4.81471,-0.64714 8.19291,-5.00408 7.56129,-9.75586 -0.63133,-4.75149 -5.03569,-8.08256 -9.83459,-7.45095 z"
         style="fill:#d9d9d9;fill-opacity:1;fill-rule:evenodd;stroke:none" />
      <path
         inkscape:connector-curvature="0"
         id="path6177"
         d="m 392.23458,627.40671 c -4.81471,0.64714 -8.20872,5.00408 -7.57739,9.75586 0.63162,4.75149 5.0515,8.08228 9.85069,7.45095 4.81471,-0.64714 8.19291,-5.00408 7.56129,-9.75586 -0.63133,-4.75149 -5.03569,-8.08256 -9.83459,-7.45095"
         style="fill:none;stroke:#CCCCCC;stroke-width:0.678802px;stroke-linecap:butt;stroke-linejoin:round;stroke-miterlimit:4;stroke-dasharray:none;stroke-opacity:1" />
      <path
         inkscape:connector-curvature="0"
         id="path6179"
         d="m 408.54166,633.05821 c -6.89864,0.93133 -12.02916,5.17765 -11.46076,9.50299 0.5842,4.32562 6.64605,7.10381 13.54441,6.17248 6.89864,-0.91553 12.02915,-5.16213 11.46076,-9.48747 -0.5842,-4.32533 -6.64605,-7.10381 -13.54441,-6.188 z"
         style="fill:#d9d9d9;fill-opacity:1;fill-rule:evenodd;stroke:none" />
      <path
         inkscape:connector-curvature="0"
         id="path6181"
         d="m 408.54166,633.05821 c -6.89864,0.93133 -12.02916,5.17765 -11.46076,9.50299 0.5842,4.32562 6.64605,7.10381 13.54441,6.17248 6.89864,-0.91553 12.02915,-5.16213 11.46076,-9.48747 -0.5842,-4.32533 -6.64605,-7.10381 -13.54441,-6.188"
         style="fill:none;stroke:#CCCCCC;stroke-width:0.678802px;stroke-linecap:butt;stroke-linejoin:round;stroke-miterlimit:4;stroke-dasharray:none;stroke-opacity:1" />
      <path
         inkscape:connector-curvature="0"
         id="path6183"
         d="m 425.82721,631.00589 c -5.90381,0.78938 -10.29237,4.38856 -9.80299,8.06676 0.48937,3.6782 5.66702,6.01444 11.5553,5.24087 5.90409,-0.78938 10.29265,-4.40436 9.80327,-8.08257 -0.48937,-3.66211 -5.6673,-6.01443 -11.55558,-5.22506 z"
         style="fill:#d9d9d9;fill-opacity:1;fill-rule:evenodd;stroke:none" />
      <path
         inkscape:connector-curvature="0"
         id="path6185"
         d="m 425.82721,631.00589 c -5.90381,0.78938 -10.29237,4.38856 -9.80299,8.06676 0.48937,3.6782 5.66702,6.01444 11.5553,5.24087 5.90409,-0.78938 10.29265,-4.40436 9.80327,-8.08257 -0.48937,-3.66211 -5.6673,-6.01443 -11.55558,-5.22506"
         style="fill:none;stroke:#CCCCCC;stroke-width:0.678802px;stroke-linecap:butt;stroke-linejoin:round;stroke-miterlimit:4;stroke-dasharray:none;stroke-opacity:1" />
      <path
         inkscape:connector-curvature="0"
         id="path6187"
         d="m 427.13756,615.64595 c -6.53542,0 -11.8395,3.1098 -11.8395,6.93024 0,3.83597 5.30408,6.92997 11.8395,6.92997 6.53542,0 11.83951,-3.094 11.83951,-6.92997 0,-3.82044 -5.30409,-6.93024 -11.83951,-6.93024 z"
         style="fill:#d9d9d9;fill-opacity:1;fill-rule:evenodd;stroke:none" />
      <path
         inkscape:connector-curvature="0"
         id="path6189"
         d="m 427.13756,615.64595 c -6.53542,0 -11.8395,3.1098 -11.8395,6.93024 0,3.83597 5.30408,6.92997 11.8395,6.92997 6.53542,0 11.83951,-3.094 11.83951,-6.92997 0,-3.82044 -5.30409,-6.93024 -11.83951,-6.93024"
         style="fill:none;stroke:#CCCCCC;stroke-width:0.678802px;stroke-linecap:butt;stroke-linejoin:round;stroke-miterlimit:4;stroke-dasharray:none;stroke-opacity:1" />
      <path
         inkscape:connector-curvature="0"
         id="path6191"
         d="m 431.55773,619.38737 c -5.90409,0.78937 -10.1346,5.55667 -9.45586,10.65558 0.67875,5.11471 6.01444,8.60326 11.90272,7.82997 5.90381,-0.78937 10.1346,-5.55667 9.45586,-10.65558 -0.67874,-5.09891 -6.01444,-8.60354 -11.90272,-7.82997 z"
         style="fill:#d9d9d9;fill-opacity:1;fill-rule:evenodd;stroke:none" />
      <path
         transform="matrix(0.28222222,0,0,0.28222222,294.18719,578.83288)"
         inkscape:connector-curvature="0"
         id="path6193"
         d="m 486.746,143.697 c -20.92,2.797 -35.91,19.689 -33.505,37.756 2.405,18.123 21.311,30.484 42.175,27.744 20.919,-2.797 35.91,-19.689 33.505,-37.756 -2.405,-18.067 -21.311,-30.485 -42.175,-27.744"
         clip-path="url(#clipEmfPath1-1)"
         style="fill:none;stroke:#CCCCCC;stroke-width:2.4052px;stroke-linecap:butt;stroke-linejoin:round;stroke-miterlimit:4;stroke-dasharray:none;stroke-opacity:1" />
      <path
         inkscape:connector-curvature="0"
         id="path6195"
         d="m 405.95255,616.05658 c -5.9038,0.78909 -10.16621,5.27247 -9.53459,10.02397 0.63133,4.73597 5.91961,7.95613 11.8237,7.16703 5.88828,-0.77357 10.16621,-5.25695 9.53487,-10.00845 -0.63161,-4.75149 -5.93569,-7.97193 -11.82398,-7.18255 z"
         style="fill:#d9d9d9;fill-opacity:1;fill-rule:evenodd;stroke:none" />
      <path
         inkscape:connector-curvature="0"
         id="path6197"
         d="m 405.95255,616.05658 c -5.9038,0.78909 -10.16621,5.27247 -9.53459,10.02397 0.63133,4.73597 5.91961,7.95613 11.8237,7.16703 5.88828,-0.77357 10.16621,-5.25695 9.53487,-10.00845 -0.63161,-4.75149 -5.93569,-7.97193 -11.82398,-7.18255"
         style="fill:none;stroke:#CCCCCC;stroke-width:0.678802px;stroke-linecap:butt;stroke-linejoin:round;stroke-miterlimit:4;stroke-dasharray:none;stroke-opacity:1" />
      <path
         inkscape:connector-curvature="0"
         id="path6199"
         d="m 395.97571,621.59745 c -5.52506,0 -9.99236,3.0782 -9.99236,6.89836 0,3.82044 4.4673,6.89864 9.99236,6.89864 5.50955,0 9.99265,-3.0782 9.99265,-6.89864 0,-3.82016 -4.4831,-6.89836 -9.99265,-6.89836 z"
         style="fill:#d9d9d9;fill-opacity:1;fill-rule:evenodd;stroke:none" />
      <path
         inkscape:connector-curvature="0"
         id="path6201"
         d="m 395.97571,621.59745 c -5.52506,0 -9.99236,3.0782 -9.99236,6.89836 0,3.82044 4.4673,6.89864 9.99236,6.89864 5.50955,0 9.99265,-3.0782 9.99265,-6.89864 0,-3.82016 -4.4831,-6.89836 -9.99265,-6.89836"
         style="fill:none;stroke:#CCCCCC;stroke-width:0.678802px;stroke-linecap:butt;stroke-linejoin:round;stroke-miterlimit:4;stroke-dasharray:none;stroke-opacity:1" />
      <path
         inkscape:connector-curvature="0"
         id="path6203"
         d="m 412.17245,621.92878 c -14.11281,2.8575 -24.61063,9.88229 -23.44251,15.70736 1.18392,5.80926 13.57602,8.22452 27.70463,5.3673 14.12861,-2.8417 24.62643,-9.88229 23.4425,-15.69156 -1.1684,-5.82506 -13.5763,-8.22452 -27.70462,-5.3831 z"
         style="fill:#d9d9d9;fill-opacity:1;fill-rule:evenodd;stroke:none" />
    </g>
    <path
       id="path133"
       d="m 346.75238,710.66413 c -11.08889,-1.24178 -20.69753,-6.61684 -23.9912,-13.42065 -0.54234,-1.12034 -0.76923,-1.31104 -1.80843,-1.52009 -0.82321,-0.1656 -1.21363,-0.14082 -1.27079,0.0806 -0.0991,0.38369 -2.87706,1.37937 -5.53189,1.9827 -2.22221,0.50502 -7.29814,0.58226 -9.58404,0.14583 -5.31075,-1.0139 -9.76486,-3.42822 -13.636,-7.39129 -6.26631,-6.41511 -8.53176,-15.89017 -5.82277,-24.35325 0.72848,-2.27582 2.64818,-6.08811 3.13411,-6.22398 0.15068,-0.0421 0.7832,0.6331 1.4056,1.5005 1.25296,1.74615 3.48037,3.7808 5.84272,5.33707 1.44696,0.95323 1.5727,0.9871 1.92405,0.51816 1.01513,-1.35487 0.99701,-1.41065 -0.86989,-2.67813 -5.9331,-4.02811 -9.15207,-10.17542 -8.21328,-15.68502 1.32236,-7.76074 8.74285,-13.99608 19.75017,-16.59583 2.83399,-0.66934 3.73471,-0.7478 8.70086,-0.75785 4.79402,-0.01 5.938,0.078 8.49942,0.65138 5.03476,1.12709 8.75291,2.66957 12.18124,5.0534 0.98403,0.68423 1.93373,1.24404 2.11046,1.24404 0.48131,0 2.2082,-0.6585 2.2082,-0.84204 0,-0.29176 -2.95386,-2.45485 -4.97146,-3.64054 -3.26448,-1.91847 -7.82744,-3.5144 -12.88624,-4.50703 l -1.23883,-0.24309 1.2638,-1.7045 c 3.63298,-4.89986 9.70212,-9.12133 16.13661,-11.22402 11.60287,-3.79164 24.38142,-1.86823 32.8361,4.94246 2.21724,1.7861 4.92071,4.9574 5.92325,6.94825 0.38243,0.75943 0.6031,0.91744 1.09646,0.78511 0.33972,-0.0911 0.9079,-0.16741 1.26262,-0.16954 l 0.64497,-0.004 -0.61104,-1.20736 c -0.33607,-0.66404 -0.85632,-1.55553 -1.15611,-1.98108 -0.7362,-1.04503 -0.47093,-1.46739 2.32839,-3.70712 13.19519,-10.55746 39.37115,-11.29133 54.05354,-1.51546 1.94846,1.29733 4.58191,3.7129 3.75276,3.44227 -0.31249,-0.10199 -1.59087,-0.42728 -2.84083,-0.72285 -9.03019,-2.13534 -18.22515,-1.00964 -26.40295,3.2324 l -2.82405,1.46491 2.04746,0.25298 c 1.95011,0.24095 2.13839,0.21129 3.96038,-0.62405 5.20412,-2.38596 12.0865,-3.51805 17.64344,-2.90219 13.12613,1.45474 23.00562,9.08789 25.92998,20.03416 0.84396,3.15909 0.83817,8.17276 -0.0132,11.36333 -1.16691,4.37343 -3.3444,8.21435 -6.62164,11.68001 -6.14106,6.49413 -14.36782,10.07692 -24.08853,10.49064 -2.84938,0.12127 -3.4575,0.2383 -4.75772,0.91569 -0.81992,0.42715 -1.49106,0.85855 -1.49143,0.95866 -10e-4,0.38165 6.20763,0.56199 9.07504,0.26359 3.02358,-0.31468 6.57819,-1.06046 8.7505,-1.83593 1.48052,-0.52852 1.52034,-0.36292 0.51039,2.12258 -2.77812,6.83699 -11.39911,12.886 -22.17173,15.55703 -4.49448,1.11438 -6.43571,1.32421 -12.07354,1.30506 -4.58642,-0.0155 -6.03987,-0.12633 -8.44683,-0.64362 -3.4695,-0.74564 -6.35057,-1.74127 -8.93855,-3.08895 -1.57712,-0.82127 -2.08872,-0.95949 -2.98868,-0.80744 -1.9757,0.33379 -1.96756,0.55712 0.0672,1.84216 1.04371,0.65916 2.49225,1.45437 3.21897,1.76713 l 1.32132,0.56864 -2.07509,1.98244 c -8.82061,8.42678 -25.4936,13.21644 -40.2533,11.5636 z"
       style="fill:url(#linearGradient149);fill-opacity:1;stroke-width:0.284082" />
    <text
       id="text157"
       y="720.2467"
       x="378.68262"
       style="font-style:normal;font-weight:normal;font-size:37.5px;line-height:1.25;font-family:sans-serif;fill:#a02c2c;fill-opacity:1;stroke:none;stroke-width:0.9375;"
       xml:space="preserve"><tspan
         style="font-style:normal;font-variant:normal;font-weight:normal;font-stretch:normal;font-size:45px;font-family:sans-serif;-inkscape-font-specification:'sans-serif, Normal';font-variant-ligatures:normal;font-variant-caps:normal;font-variant-numeric:normal;font-variant-east-asian:normal;fill:#a02c2c;stroke-width:0.9375"
         y="720.2467"
         x="378.68262"
         id="tspan155"
         sodipodi:role="line">ERP</tspan></text>
  </g>
</svg>
